<svg width="110" height="26" viewBox="0 0 110 26" fill="none" xmlns="http://www.w3.org/2000/svg">
<path fill-rule="evenodd" clip-rule="evenodd" d="M21.8525 3.36192C22.0754 3.36192 22.2892 3.45047 22.4468 3.60809C22.6044 3.76571 22.693 3.97949 22.693 4.2024V20.8427L21.3997 19.226C21.006 18.7343 20.5068 18.3374 19.9391 18.0646C19.3714 17.7918 18.7496 17.6502 18.1197 17.6501H4.2024C3.97949 17.6501 3.76571 17.5615 3.60809 17.4039C3.45047 17.2463 3.36192 17.0325 3.36192 16.8096V4.2024C3.36192 3.97949 3.45047 3.76571 3.60809 3.60809C3.76571 3.45047 3.97949 3.36192 4.2024 3.36192H21.8525ZM24.824 1.23085C24.0359 0.442751 22.967 0 21.8525 0H4.2024C3.08785 0 2.01896 0.442752 1.23086 1.23085C0.442752 2.01896 0 3.08785 0 4.2024V16.8096C0 17.9241 0.442754 18.993 1.23086 19.7811C2.01896 20.5692 3.08785 21.012 4.2024 21.012H18.1193C18.2452 21.012 18.3697 21.0404 18.4832 21.0949C18.5965 21.1494 18.6962 21.2285 18.7748 21.3266L21.7123 24.9987C22.0274 25.3937 22.4575 25.6809 22.943 25.8207C23.4285 25.9606 23.9455 25.946 24.4224 25.7792C24.8993 25.6123 25.3126 25.3014 25.605 24.8894C25.8975 24.4774 26.0547 23.9847 26.0549 23.4794V4.2024C26.0549 3.08785 25.6121 2.01896 24.824 1.23085Z" fill="#CF3E01"/>
<path d="M35.4512 4.86834V20.8024H32.179V4.86834H35.4512Z" fill="#212121"/>
<path d="M41.4155 11.4893V20.8024H38.2637V8.96131H41.2185L41.4155 11.4893ZM40.9559 14.466H40.1023C40.1023 13.5905 40.2154 12.8026 40.4415 12.1022C40.6677 11.3945 40.9851 10.7926 41.3936 10.2964C41.8022 9.79303 42.2874 9.41 42.8492 9.14735C43.4182 8.8774 44.053 8.74243 44.7534 8.74243C45.3078 8.74243 45.8149 8.82269 46.2745 8.98319C46.7342 9.1437 47.1282 9.39906 47.4565 9.74926C47.7921 10.0995 48.0474 10.5627 48.2225 11.1391C48.4049 11.7155 48.4961 12.4195 48.4961 13.2513V20.8024H45.3224V13.2403C45.3224 12.715 45.2495 12.3064 45.1036 12.0146C44.9577 11.7228 44.7424 11.5185 44.4579 11.4018C44.1806 11.2777 43.8377 11.2157 43.4292 11.2157C43.006 11.2157 42.6376 11.2996 42.3239 11.4674C42.0174 11.6352 41.7621 11.8687 41.5578 12.1678C41.3608 12.4597 41.2112 12.8026 41.1091 13.1965C41.007 13.5905 40.9559 14.0137 40.9559 14.466Z" fill="#212121"/>
<path d="M56.693 8.96131V11.1938H49.7984V8.96131H56.693ZM51.5057 6.03932H54.6575V17.2348C54.6575 17.5777 54.7012 17.8403 54.7888 18.0227C54.8836 18.2051 55.0223 18.3328 55.2046 18.4058C55.387 18.4714 55.6169 18.5043 55.8941 18.5043C56.0911 18.5043 56.2662 18.497 56.4194 18.4824C56.5799 18.4605 56.7149 18.4386 56.8243 18.4167L56.8353 20.7368C56.5653 20.8243 56.2735 20.8936 55.9598 20.9447C55.646 20.9958 55.2995 21.0213 54.9201 21.0213C54.227 21.0213 53.6215 20.9082 53.1034 20.6821C52.5927 20.4486 52.1988 20.0765 51.9215 19.5658C51.6443 19.0551 51.5057 18.3839 51.5057 17.5522V6.03932Z" fill="#212121"/>
<path d="M63.9378 21.0213C63.0185 21.0213 62.1941 20.8754 61.4645 20.5836C60.7349 20.2844 60.1147 19.8722 59.604 19.3469C59.1006 18.8216 58.7139 18.2124 58.444 17.5193C58.1741 16.8189 58.0391 16.0747 58.0391 15.2868V14.849C58.0391 13.9517 58.1668 13.1309 58.4221 12.3867C58.6775 11.6425 59.0423 10.9968 59.5165 10.4497C59.998 9.90247 60.5817 9.48296 61.2675 9.19112C61.9533 8.892 62.7267 8.74243 63.5876 8.74243C64.4266 8.74243 65.1708 8.88105 65.8201 9.15829C66.4694 9.43554 67.013 9.82951 67.4507 10.3402C67.8958 10.8509 68.2314 11.4638 68.4575 12.1788C68.6837 12.8865 68.7968 13.6744 68.7968 14.5426V15.8559H59.3852V13.7547H65.6997V13.5139C65.6997 13.0762 65.6195 12.6858 65.4589 12.3429C65.3057 11.9927 65.0723 11.7155 64.7585 11.5112C64.4448 11.3069 64.0435 11.2048 63.5547 11.2048C63.1389 11.2048 62.7814 11.296 62.4822 11.4784C62.1831 11.6608 61.9387 11.9161 61.749 12.2444C61.5666 12.5727 61.428 12.9594 61.3331 13.4045C61.2456 13.8422 61.2018 14.3237 61.2018 14.849V15.2868C61.2018 15.761 61.2675 16.1988 61.3988 16.6C61.5374 17.0013 61.7308 17.3479 61.9788 17.6397C62.2342 17.9315 62.5406 18.1577 62.8981 18.3182C63.2629 18.4787 63.6751 18.559 64.1348 18.559C64.7038 18.559 65.2328 18.4495 65.7216 18.2307C66.2177 18.0045 66.6445 17.6652 67.002 17.2129L68.5341 18.8763C68.2861 19.2338 67.9468 19.5767 67.5164 19.9051C67.0932 20.2334 66.5825 20.5033 65.9842 20.7149C65.386 20.9192 64.7038 21.0213 63.9378 21.0213Z" fill="#212121"/>
<path d="M73.7434 11.544V20.8024H70.5916V8.96131H73.5573L73.7434 11.544ZM77.311 8.8847L77.2563 11.8067C77.1031 11.7848 76.917 11.7666 76.6982 11.752C76.4866 11.7301 76.2933 11.7191 76.1182 11.7191C75.6731 11.7191 75.2864 11.7775 74.9581 11.8942C74.6371 12.0037 74.3672 12.1678 74.1483 12.3867C73.9367 12.6056 73.7762 12.8719 73.6668 13.1856C73.5646 13.4993 73.5062 13.8568 73.4917 14.2581L72.8569 14.0611C72.8569 13.295 72.9335 12.591 73.0867 11.9489C73.2399 11.2996 73.4625 10.7342 73.7543 10.2527C74.0534 9.77114 74.4182 9.39906 74.8487 9.13641C75.2791 8.87376 75.7716 8.74243 76.3261 8.74243C76.5012 8.74243 76.6799 8.75702 76.8623 8.78621C77.0447 8.80809 77.1943 8.84093 77.311 8.8847Z" fill="#212121"/>
<path d="M78.7994 3.99284H81.9512V18.0884L81.6338 20.8024H78.7994V3.99284ZM89.4476 14.7615V14.9913C89.4476 15.8741 89.3528 16.6839 89.1631 17.4208C88.9807 18.1577 88.6962 18.7961 88.3095 19.336C87.9228 19.8686 87.4413 20.2844 86.8649 20.5836C86.2958 20.8754 85.6246 21.0213 84.8513 21.0213C84.129 21.0213 83.5015 20.8754 82.9689 20.5836C82.4436 20.2917 82.0022 19.8795 81.6447 19.3469C81.2873 18.8143 80.9991 18.1905 80.7802 17.4755C80.5613 16.7606 80.3972 15.9799 80.2877 15.1336V14.6302C80.3972 13.7839 80.5613 13.0032 80.7802 12.2882C80.9991 11.5732 81.2873 10.9494 81.6447 10.4168C82.0022 9.88423 82.4436 9.47201 82.9689 9.18018C83.4942 8.88835 84.1144 8.74243 84.8294 8.74243C85.61 8.74243 86.2885 8.892 86.8649 9.19112C87.4486 9.48296 87.9301 9.89882 88.3095 10.4387C88.6962 10.9713 88.9807 11.606 89.1631 12.3429C89.3528 13.0725 89.4476 13.8787 89.4476 14.7615ZM86.2958 14.9913V14.7615C86.2958 14.28 86.2594 13.8276 86.1864 13.4045C86.1207 12.974 86.004 12.5983 85.8362 12.2773C85.6684 11.9489 85.4386 11.6899 85.1467 11.5003C84.8622 11.3106 84.4938 11.2157 84.0414 11.2157C83.611 11.2157 83.2462 11.2887 82.9471 11.4346C82.6479 11.5805 82.3999 11.7848 82.2029 12.0474C82.0132 12.3101 81.8709 12.6238 81.7761 12.9886C81.6812 13.3461 81.6229 13.7401 81.601 14.1705V15.6042C81.6229 16.1805 81.7177 16.6912 81.8855 17.1363C82.0606 17.574 82.3233 17.9206 82.6735 18.1759C83.031 18.424 83.4942 18.548 84.0633 18.548C84.5084 18.548 84.8768 18.4605 85.1686 18.2854C85.4605 18.1103 85.6866 17.8622 85.8471 17.5412C86.015 17.2202 86.1317 16.8445 86.1973 16.414C86.263 15.9762 86.2958 15.502 86.2958 14.9913Z" fill="#212121"/>
<path d="M90.9032 15.0023V14.7724C90.9032 13.9042 91.0272 13.1053 91.2752 12.3758C91.5233 11.6389 91.8844 11.0005 92.3587 10.4606C92.8329 9.92071 93.4166 9.5012 94.1097 9.20207C94.8028 8.89564 95.598 8.74243 96.4954 8.74243C97.3928 8.74243 98.1917 8.89564 98.8921 9.20207C99.5925 9.5012 100.18 9.92071 100.654 10.4606C101.136 11.0005 101.5 11.6389 101.748 12.3758C101.996 13.1053 102.12 13.9042 102.12 14.7724V15.0023C102.12 15.8632 101.996 16.6621 101.748 17.3989C101.5 18.1285 101.136 18.7669 100.654 19.3141C100.18 19.854 99.5961 20.2735 98.903 20.5726C98.2099 20.8718 97.4147 21.0213 96.5173 21.0213C95.6199 21.0213 94.821 20.8718 94.1206 20.5726C93.4275 20.2735 92.8402 19.854 92.3587 19.3141C91.8844 18.7669 91.5233 18.1285 91.2752 17.3989C91.0272 16.6621 90.9032 15.8632 90.9032 15.0023ZM94.055 14.7724V15.0023C94.055 15.4984 94.0987 15.9617 94.1863 16.3921C94.2738 16.8226 94.4125 17.202 94.6021 17.5303C94.7991 17.8513 95.0545 18.103 95.3682 18.2854C95.6819 18.4678 96.065 18.559 96.5173 18.559C96.9551 18.559 97.3308 18.4678 97.6445 18.2854C97.9582 18.103 98.2099 17.8513 98.3996 17.5303C98.5893 17.202 98.7279 16.8226 98.8155 16.3921C98.9103 15.9617 98.9578 15.4984 98.9578 15.0023V14.7724C98.9578 14.2909 98.9103 13.8386 98.8155 13.4154C98.7279 12.985 98.5857 12.6056 98.3887 12.2773C98.199 11.9417 97.9473 11.679 97.6336 11.4893C97.3198 11.2996 96.9405 11.2048 96.4954 11.2048C96.0504 11.2048 95.671 11.2996 95.3573 11.4893C95.0508 11.679 94.7991 11.9417 94.6021 12.2773C94.4125 12.6056 94.2738 12.985 94.1863 13.4154C94.0987 13.8386 94.055 14.2909 94.055 14.7724Z" fill="#212121"/>
<path d="M109.858 8.96131V11.1938H102.963V8.96131H109.858ZM104.67 6.03932H107.822V17.2348C107.822 17.5777 107.866 17.8403 107.954 18.0227C108.048 18.2051 108.187 18.3328 108.369 18.4058C108.552 18.4714 108.782 18.5043 109.059 18.5043C109.256 18.5043 109.431 18.497 109.584 18.4824C109.745 18.4605 109.88 18.4386 109.989 18.4167L110 20.7368C109.73 20.8243 109.438 20.8936 109.125 20.9447C108.811 20.9958 108.464 21.0213 108.085 21.0213C107.392 21.0213 106.786 20.9082 106.268 20.6821C105.757 20.4486 105.364 20.0765 105.086 19.5658C104.809 19.0551 104.67 18.3839 104.67 17.5522V6.03932Z" fill="#212121"/>
</svg>
