<svg width="14" height="20" viewBox="0 0 14 20" fill="none" xmlns="http://www.w3.org/2000/svg">
<path d="M5 7.01L5.01 6.999M9 7.01L9.01 6.999M5 11.01L5.01 10.999M9 11.01L9.01 10.999M5 15.01L5.01 14.999M9 15.01L9.01 14.999M1 18.4V3.6C1 3.44087 1.06321 3.28826 1.17574 3.17574C1.28826 3.06321 1.44087 3 1.6 3H7V1.6C7 1.44087 7.06321 1.28826 7.17574 1.17574C7.28826 1.06321 7.44087 1 7.6 1H12.4C12.5591 1 12.7117 1.06321 12.8243 1.17574C12.9368 1.28826 13 1.44087 13 1.6V18.4C13 18.5591 12.9368 18.7117 12.8243 18.8243C12.7117 18.9368 12.5591 19 12.4 19H1.6C1.44087 19 1.28826 18.9368 1.17574 18.8243C1.06321 18.7117 1 18.5591 1 18.4Z" stroke="#CF3E01" stroke-width="1.5" stroke-linecap="round" stroke-linejoin="round"/>
</svg>
