<svg width="20" height="20" viewBox="0 0 20 20" fill="none" xmlns="http://www.w3.org/2000/svg">
<path d="M3.23768 3.81065C1.68781 5.49886 0.829523 7.70822 0.833264 9.99998C0.833264 15.0627 4.93718 19.1666 9.99993 19.1666C12.2334 19.1702 14.3908 18.3549 16.0637 16.875M18.5268 13.3715C18.9504 12.2979 19.1675 11.1541 19.1666 9.99998C19.1666 4.93723 15.0627 0.833313 9.99993 0.833313C8.87151 0.833313 7.79076 1.03773 6.7916 1.41081" stroke="#CF3E01" stroke-width="1.5" stroke-linecap="round" stroke-linejoin="round"/>
<path d="M7.25 12.75C7.84033 13.5383 8.93942 13.9875 10 14.0251M10 14.0251C11.0212 14.0618 12.0075 13.7171 12.4722 12.9269M10 14.0251V15.9583M7.70833 7.70833C7.70833 8.79092 8.48933 9.23458 9.43717 9.54167M12.75 6.79167C12.1221 6.16375 11.0166 5.72742 10 5.69992V4.04167M1.75 1.75L18.25 18.25" stroke="#CF3E01" stroke-width="1.5" stroke-linecap="round" stroke-linejoin="round"/>
</svg>
