<svg width="20" height="20" viewBox="0 0 20 20" fill="none" xmlns="http://www.w3.org/2000/svg">
<path d="M1.6665 10C1.6665 14.6025 5.39734 18.3333 9.99984 18.3333C14.6023 18.3333 18.3332 14.6025 18.3332 10C18.3332 5.3975 14.6023 1.66667 9.99984 1.66667C5.39734 1.66667 1.6665 5.3975 1.6665 10Z" stroke="#414141" stroke-width="1.5" stroke-linecap="round" stroke-linejoin="round"/>
<path d="M10.8331 1.70833C10.8331 1.70833 13.3331 5 13.3331 10C13.3331 15 10.8331 18.2917 10.8331 18.2917M9.16641 18.2917C9.16641 18.2917 6.66641 15 6.66641 10C6.66641 5 9.16641 1.70833 9.16641 1.70833M2.19141 12.9167H17.8081M2.19141 7.08333H17.8081" stroke="#414141" stroke-width="1.5" stroke-linecap="round" stroke-linejoin="round"/>
</svg>
